<?xml version="1.0" encoding="UTF-8"?>
<svg id="_レイヤー_1" data-name=" レイヤー 1" xmlns="http://www.w3.org/2000/svg" xmlns:xlink="http://www.w3.org/1999/xlink" viewBox="0 0 100 100">
  <defs>
    <style>
      .cls-1 {
        fill: #fff;
      }

      .cls-2 {
        fill: url(#_名称未設定グラデーション_23);
      }

      .cls-3 {
        fill: url(#_名称未設定グラデーション_21);
      }
    </style>
    <linearGradient id="_名称未設定グラデーション_23" data-name="名称未設定グラデーション 23" x1="61.3" y1="65.11" x2="91.36" y2="100.7" gradientUnits="userSpaceOnUse">
      <stop offset="0" stop-color="#fff"/>
      <stop offset=".66" stop-color="#000"/>
    </linearGradient>
    <linearGradient id="_名称未設定グラデーション_21" data-name="名称未設定グラデーション 21" x1="52.4" y1="41.92" x2="70.55" y2="23.15" gradientUnits="userSpaceOnUse">
      <stop offset="0" stop-color="#000"/>
      <stop offset=".88" stop-color="#fff"/>
    </linearGradient>
  </defs>
  <path d="M36.95,62.67v13.33h-7.36V24.46h7.36v28.79l10.27-10.56,17.71-18.22h8.39l-22.01,23.19h0s-4.93,5.45-4.93,5.45l4.93-5.45,32.85,38.85c9.75-9.12,15.85-22.1,15.85-36.5C100,22.39,77.61,0,50,0S0,22.39,0,50s22.39,50,50,50c10.76,0,20.71-3.41,28.87-9.19l-32.5-37.71-9.42,9.57Z"/>
  <path d="M51.3,47.65l-4.93,5.45,32.5,37.71c1.86-1.32,3.63-2.76,5.29-4.31l-32.85-38.85Z"/>
  <path class="cls-2" d="M51.3,47.65l-4.93,5.45,32.5,37.71c1.86-1.32,3.63-2.76,5.29-4.31l-32.85-38.85Z"/>
  <polygon class="cls-1" points="36.95 50.23 36.95 24.46 29.58 24.46 29.58 76 36.95 76 36.95 66.09 36.95 62.67 36.95 53.25 36.95 50.23"/>
  <polygon class="cls-1" points="51.31 47.65 47.21 42.68 36.95 53.25 36.95 62.67 46.37 53.1 51.3 47.65 51.31 47.65"/>
  <polygon points="73.32 24.46 64.92 24.46 47.21 42.68 51.31 47.65 73.32 24.46"/>
  <polygon class="cls-3" points="73.32 24.46 64.92 24.46 47.21 42.68 51.31 47.65 73.32 24.46"/>
</svg>